<?xml version="1.0" encoding="UTF-8" standalone="no"?>
<!-- Created with Inkscape (http://www.inkscape.org/) -->

<svg
   width="20px"
   height="20px"
   viewBox="0 0 24 24"
   version="1.1"
   id="svg1"
   xml:space="preserve"
   inkscape:version="1.4 (86a8ad7, 2024-10-11)"
   sodipodi:docname="champions.svg"
   xmlns:inkscape="http://www.inkscape.org/namespaces/inkscape"
   xmlns:sodipodi="http://sodipodi.sourceforge.net/DTD/sodipodi-0.dtd"
   xmlns="http://www.w3.org/2000/svg"
   xmlns:svg="http://www.w3.org/2000/svg"><sodipodi:namedview
     id="namedview1"
     pagecolor="#ffffff"
     bordercolor="#000000"
     borderopacity="0.25"
     inkscape:showpageshadow="2"
     inkscape:pageopacity="0.0"
     inkscape:pagecheckerboard="0"
     inkscape:deskcolor="#d1d1d1"
     inkscape:document-units="mm"
     inkscape:zoom="2.8756734"
     inkscape:cx="71.98314"
     inkscape:cy="101.01982"
     inkscape:window-width="1920"
     inkscape:window-height="1009"
     inkscape:window-x="1912"
     inkscape:window-y="-8"
     inkscape:window-maximized="1"
     inkscape:current-layer="layer1" /><defs
     id="defs1" /><g
     inkscape:label="Capa 1"
     inkscape:groupmode="layer"
     id="layer1"
     transform="translate(-69.438752,-100.88507)"><path
       style="fill:#ffffff;fill-opacity:1;stroke:#000000;stroke-width:0.353024;stroke-opacity:1"
       d="m 70.691757,124.65956 c 0.01164,-0.0286 0.685638,-1.03595 1.497765,-2.23847 l 1.476594,-2.1864 v -7.3584 -7.35839 l -1.397207,-2.1986 c -0.768465,-1.20922 -1.397208,-2.21189 -1.397208,-2.22815 0,-0.0163 2.229182,-0.0296 4.953737,-0.0296 h 4.953736 v 8.86845 8.86847 l 6.092416,0.0157 6.092415,0.0157 -2.297724,2.93761 -2.297727,2.93762 -8.848983,0.003 c -4.866941,0.002 -8.839458,-0.0202 -8.827814,-0.0488 z m 17.391005,-2.85058 c 0.401699,-0.51221 0.739885,-0.95554 0.751529,-0.98517 0.01199,-0.0304 -2.172732,-0.0539 -5.033125,-0.0539 h -5.054294 v -8.86877 -8.86877 h -2.127566 c -1.170161,0 -2.127567,0.0108 -2.127567,0.024 0,0.0132 0.271503,0.44873 0.603341,0.96785 l 0.603339,0.94384 v 7.92704 7.92703 l -0.563707,0.82591 c -0.310041,0.45424 -0.596838,0.88593 -0.63733,0.9593 l -0.07362,0.1334 6.464321,-2.5e-4 6.464322,-2.5e-4 z m -16.806923,-2.27081 c -1.190689,-1.91076 -1.740239,-3.91935 -1.651366,-6.03569 0.08359,-1.99036 0.576734,-3.5721 1.651366,-5.29662 l 0.32622,-0.52351 0.01647,3.09483 c 0.0091,1.70216 0.0091,4.48751 0,6.18966 l -0.01647,3.09484 z m 18.169198,-2.81616 c 0.13463,-0.33928 0.352536,-1.30958 0.419451,-1.86772 0.360395,-3.00614 -0.967101,-6.0676 -3.442332,-7.93866 -0.968218,-0.73189 -2.103098,-1.29292 -3.181989,-1.57302 l -0.428688,-0.11129 v -1.00825 -1.00824 l 0.17465,0.0368 c 1.853302,0.39114 3.506632,1.16244 4.906104,2.28877 3.235006,2.60363 4.69256,6.69637 3.791287,10.64576 l -0.139492,0.61127 -1.07118,0.0169 c -1.003702,0.0159 -1.068449,0.01 -1.027811,-0.0924 z"
       id="path1" /></g></svg>
